<!DOCTYPE svg PUBLIC "-//W3C//DTD SVG 1.1//EN" "http://www.w3.org/Graphics/SVG/1.1/DTD/svg11.dtd">

<!-- Uploaded to: SVG Repo, www.svgrepo.com, Transformed by: SVG Repo Mixer Tools -->
<svg fill="#000000ff" height="256px" width="256px" version="1.1" id="Layer_1" xmlns="http://www.w3.org/2000/svg" xmlns:xlink="http://www.w3.org/1999/xlink" viewBox="0 0 512 512" xml:space="preserve" stroke="#ffffff" stroke-width="3.072">

<g id="SVGRepo_bgCarrier" stroke-width="0"/>

<g id="SVGRepo_tracerCarrier" stroke-linecap="round" stroke-linejoin="round"/>

<g id="SVGRepo_iconCarrier"> <g> <g> <path d="M449.362,0H62.638c-4.513,0-8.17,3.658-8.17,8.17v495.66c0,4.512,3.657,8.17,8.17,8.17H384 c2.167,0,4.244-0.861,5.778-2.393l65.362-65.362c1.532-1.532,2.392-3.61,2.392-5.777V8.17C457.532,3.658,453.875,0,449.362,0z M392.17,484.106v-37.468h37.468L392.17,484.106z M441.191,430.298H384c-4.513,0-8.17,3.658-8.17,8.17v57.191H70.809V16.34 h370.383V430.298z"/> </g> </g> <g> <g> <path d="M215.149,430.298h-54.468c-4.513,0-8.17,3.658-8.17,8.17s3.657,8.17,8.17,8.17h54.468c4.513,0,8.17-3.658,8.17-8.17 S219.662,430.298,215.149,430.298z"/> </g> </g> <g> <g> <path d="M215.149,397.617h-54.468c-4.513,0-8.17,3.658-8.17,8.17s3.657,8.17,8.17,8.17h54.468c4.513,0,8.17-3.658,8.17-8.17 S219.662,397.617,215.149,397.617z"/> </g> </g> <g> <g> <path d="M302.298,364.936H160.681c-4.513,0-8.17,3.658-8.17,8.17s3.657,8.17,8.17,8.17h141.617c4.513,0,8.17-3.658,8.17-8.17 S306.811,364.936,302.298,364.936z"/> </g> </g> <g> <g> <path d="M384,332.255H193.362c-4.513,0-8.17,3.658-8.17,8.17s3.657,8.17,8.17,8.17H384c4.513,0,8.17-3.658,8.17-8.17 S388.513,332.255,384,332.255z"/> </g> </g> <g> <g> <path d="M384,299.574H226.043c-4.513,0-8.17,3.658-8.17,8.17s3.657,8.17,8.17,8.17H384c4.513,0,8.17-3.658,8.17-8.17 S388.513,299.574,384,299.574z"/> </g> </g> <g> <g> <path d="M384,266.894H258.723c-4.513,0-8.17,3.658-8.17,8.17s3.657,8.17,8.17,8.17H384c4.513,0,8.17-3.658,8.17-8.17 S388.513,266.894,384,266.894z"/> </g> </g> <g> <g> <path d="M226.043,266.894h-32.681c-4.513,0-8.17,3.658-8.17,8.17s3.657,8.17,8.17,8.17h32.681c4.513,0,8.17-3.658,8.17-8.17 S230.556,266.894,226.043,266.894z"/> </g> </g> <g> <g> <path d="M302.298,234.213H160.681c-4.513,0-8.17,3.658-8.17,8.17s3.657,8.17,8.17,8.17h141.617c4.513,0,8.17-3.658,8.17-8.17 S306.811,234.213,302.298,234.213z"/> </g> </g> <g> <g> <circle cx="182.468" cy="133.992" r="8.17"/> </g> </g> <g> <g> <circle cx="215.149" cy="133.992" r="8.17"/> </g> </g> <g> <g> <circle cx="247.83" cy="133.992" r="8.17"/> </g> </g> <g> <g> <path d="M150.082,186.281c-4.506,0-8.17-3.665-8.17-8.135l0.136-31.626c0-4.467-1.215-8.78-3.454-12.528 c2.24-3.747,3.454-8.059,3.454-12.528V89.872c0-4.506,3.665-8.17,8.17-8.17c4.513,0,8.17-3.658,8.17-8.17s-3.657-8.17-8.17-8.17 c-13.515,0-24.511,10.995-24.511,24.511v31.591c0,2.41-1.076,4.692-2.952,6.263c-1.855,1.551-2.926,3.845-2.926,6.265 c0,2.419,1.071,4.714,2.926,6.265c1.877,1.571,2.953,3.854,2.953,6.228l-0.136,31.626c0,13.516,10.996,24.511,24.511,24.511 c4.512,0,8.169-3.658,8.169-8.17C158.253,189.939,154.596,186.281,150.082,186.281z"/> </g> </g> <g> <g> <path d="M307.542,127.727c-1.877-1.571-2.953-3.854-2.953-6.263V89.872c0-13.516-10.996-24.511-24.511-24.511 c-4.513,0-8.17,3.658-8.17,8.17s3.658,8.17,8.171,8.17c4.506,0,8.17,3.665,8.17,8.17v31.591c0,4.467,1.216,8.78,3.456,12.529 c-2.24,3.751-3.456,8.072-3.456,12.561l0.136,31.557c0,4.506-3.665,8.17-8.17,8.17c-4.513,0-8.17,3.658-8.17,8.17 c0,4.512,3.657,8.17,8.17,8.17c13.515,0,24.511-10.995,24.511-24.545l-0.136-31.557c0-2.409,1.076-4.692,2.953-6.263 c1.854-1.552,2.925-3.846,2.925-6.265S309.397,129.279,307.542,127.727z"/> </g> </g> <g> <g> <path d="M128,234.213c-4.513,0-8.17,3.658-8.17,8.17v196.085c0,4.512,3.657,8.17,8.17,8.17c4.513,0,8.17-3.658,8.17-8.17V242.383 C136.17,237.871,132.513,234.213,128,234.213z"/> </g> </g> </g>

</svg>