<!DOCTYPE svg PUBLIC "-//W3C//DTD SVG 1.1//EN" "http://www.w3.org/Graphics/SVG/1.1/DTD/svg11.dtd">
<!-- Uploaded to: SVG Repo, www.svgrepo.com, Transformed by: SVG Repo Mixer Tools -->
<svg fill="#ffffff" height="256px" width="256px" version="1.1" id="Layer_1" xmlns="http://www.w3.org/2000/svg" xmlns:xlink="http://www.w3.org/1999/xlink" viewBox="0 0 512 512" xml:space="preserve" stroke="#ffffff" stroke-width="0.00512">
<g id="SVGRepo_bgCarrier" stroke-width="0"/>
<g id="SVGRepo_tracerCarrier" stroke-linecap="round" stroke-linejoin="round"/>
<g id="SVGRepo_iconCarrier"> <g> <g> <path d="M503.83,462.979H49.021V8.17c0-4.513-3.658-8.17-8.17-8.17H8.17C3.658,0,0,3.657,0,8.17s3.658,8.17,8.17,8.17h24.511 v76.255H8.17c-4.512,0-8.17,3.657-8.17,8.17c0,4.513,3.658,8.17,8.17,8.17h24.511v76.255H8.17c-4.512,0-8.17,3.657-8.17,8.17 s3.658,8.17,8.17,8.17h24.511v76.255H8.17c-4.512,0-8.17,3.657-8.17,8.17s3.658,8.17,8.17,8.17h24.511v76.255H8.17 c-4.512,0-8.17,3.657-8.17,8.17c0,4.513,3.658,8.17,8.17,8.17h24.511v76.255H8.17c-4.512,0-8.17,3.657-8.17,8.17 s3.658,8.17,8.17,8.17h24.511v24.511c0,4.513,3.658,8.17,8.17,8.17s8.17-3.657,8.17-8.17v-24.511h76.255v24.511 c0,4.513,3.658,8.17,8.17,8.17c4.512,0,8.17-3.657,8.17-8.17v-24.511h76.255v24.511c0,4.513,3.658,8.17,8.17,8.17 c4.512,0,8.17-3.657,8.17-8.17v-24.511h76.255v24.511c0,4.513,3.657,8.17,8.17,8.17s8.17-3.657,8.17-8.17v-24.511h76.255v24.511 c0,4.513,3.657,8.17,8.17,8.17c4.513,0,8.17-3.657,8.17-8.17v-24.511h76.255v24.511c0,4.513,3.657,8.17,8.17,8.17 s8.17-3.657,8.17-8.17v-32.681C512,466.636,508.343,462.979,503.83,462.979z"/> </g> </g> <g> <g> <circle cx="190.638" cy="362.213" r="8.17"/> </g> </g> <g> <g> <circle cx="190.638" cy="321.362" r="8.17"/> </g> </g> <g> <g> <circle cx="226.021" cy="341.787" r="8.17"/> </g> </g> <g> <g> <circle cx="226.021" cy="300.936" r="8.17"/> </g> </g> <g> <g> <circle cx="190.638" cy="280.511" r="8.17"/> </g> </g> <g> <g> <circle cx="155.256" cy="300.936" r="8.17"/> </g> </g> <g> <g> <circle cx="155.256" cy="341.787" r="8.17"/> </g> </g> <g> <g> <path d="M190.638,231.489c-49.556,0-89.872,40.317-89.872,89.872s40.316,89.872,89.872,89.872 c17.697,0,34.833-5.154,49.558-14.906c3.763-2.491,4.792-7.56,2.301-11.323c-2.49-3.763-7.56-4.792-11.323-2.301 c-12.042,7.974-26.059,12.189-40.536,12.189c-40.546,0-73.532-32.986-73.532-73.532c0-40.546,32.986-73.532,73.532-73.532 s73.532,32.986,73.532,73.532c0,14.478-4.215,28.494-12.189,40.536c-2.491,3.762-1.461,8.83,2.301,11.323 c3.762,2.492,8.833,1.462,11.323-2.301c9.752-14.725,14.906-31.862,14.906-49.558 C280.511,271.807,240.194,231.489,190.638,231.489z"/> </g> </g> <g> <g> <circle cx="381.277" cy="212.426" r="8.17"/> </g> </g> <g> <g> <circle cx="422.128" cy="201.477" r="8.17"/> </g> </g> <g> <g> <circle cx="452.031" cy="171.574" r="8.17"/> </g> </g> <g> <g> <circle cx="462.979" cy="130.723" r="8.17"/> </g> </g> <g> <g> <circle cx="452.031" cy="89.872" r="8.17"/> </g> </g> <g> <g> <circle cx="422.128" cy="59.969" r="8.17"/> </g> </g> <g> <g> <circle cx="381.277" cy="49.021" r="8.17"/> </g> </g> <g> <g> <circle cx="340.426" cy="59.969" r="8.17"/> </g> </g> <g> <g> <circle cx="310.523" cy="89.872" r="8.17"/> </g> </g> <g> <g> <circle cx="299.574" cy="130.723" r="8.17"/> </g> </g> <g> <g> <circle cx="310.523" cy="171.574" r="8.17"/> </g> </g> <g> <g> <circle cx="340.426" cy="201.477" r="8.17"/> </g> </g> <g> <g> <circle cx="381.277" cy="171.574" r="8.17"/> </g> </g> <g> <g> <circle cx="381.277" cy="130.723" r="8.17"/> </g> </g> <g> <g> <circle cx="416.659" cy="151.149" r="8.17"/> </g> </g> <g> <g> <circle cx="416.659" cy="110.298" r="8.17"/> </g> </g> <g> <g> <circle cx="381.277" cy="89.872" r="8.17"/> </g> </g> <g> <g> <circle cx="345.894" cy="110.298" r="8.17"/> </g> </g> <g> <g> <circle cx="345.894" cy="151.149" r="8.17"/> </g> </g> <g> <g> <path d="M381.277,0c-72.081,0-130.723,58.643-130.723,130.723s58.643,130.723,130.723,130.723 c28.928,0,56.346-9.265,79.288-26.794c3.586-2.74,4.272-7.867,1.533-11.453c-2.74-3.585-7.867-4.274-11.452-1.533 c-20.069,15.335-44.057,23.439-69.368,23.439c-63.071,0-114.383-51.312-114.383-114.383S318.206,16.34,381.277,16.34 S495.66,67.653,495.66,130.723c0,25.311-8.104,49.299-23.439,69.37c-2.74,3.585-2.053,8.713,1.533,11.452 c3.585,2.74,8.713,2.053,11.452-1.533C502.735,187.07,512,159.651,512,130.723C512,58.643,453.357,0,381.277,0z"/> </g> </g> </g>
</svg>